<mxfile host="app.diagrams.net" agent="Mozilla/5.0 (Windows NT 10.0; Win64; x64) AppleWebKit/537.36 (KHTML, like Gecko) Chrome/129.0.0.0 Safari/537.36 Edg/129.0.0.0" version="24.7.17">
  <diagram name="Страница — 1" id="IqQno5-7Sq6GFM3jTwXU">
    <mxGraphModel dx="1426" dy="791" grid="1" gridSize="10" guides="1" tooltips="1" connect="1" arrows="1" fold="1" page="1" pageScale="1" pageWidth="827" pageHeight="1169" math="0" shadow="0">
      <root>
        <mxCell id="0" />
        <mxCell id="1" parent="0" />
        <mxCell id="-39-3HdcxTbrcTBz9rxq-1" value="Ввод" style="rounded=1;whiteSpace=wrap;html=1;" vertex="1" parent="1">
          <mxGeometry x="300" y="50" width="130" height="70" as="geometry" />
        </mxCell>
        <mxCell id="-39-3HdcxTbrcTBz9rxq-3" value="" style="endArrow=classic;html=1;rounded=0;exitX=0.5;exitY=1;exitDx=0;exitDy=0;" edge="1" parent="1" source="-39-3HdcxTbrcTBz9rxq-1">
          <mxGeometry width="50" height="50" relative="1" as="geometry">
            <mxPoint x="360" y="220" as="sourcePoint" />
            <mxPoint x="365" y="200" as="targetPoint" />
          </mxGeometry>
        </mxCell>
        <mxCell id="-39-3HdcxTbrcTBz9rxq-4" value="Ввод x" style="shape=parallelogram;perimeter=parallelogramPerimeter;whiteSpace=wrap;html=1;fixedSize=1;" vertex="1" parent="1">
          <mxGeometry x="280" y="200" width="150" height="80" as="geometry" />
        </mxCell>
        <mxCell id="-39-3HdcxTbrcTBz9rxq-5" value="Ввод b" style="shape=parallelogram;perimeter=parallelogramPerimeter;whiteSpace=wrap;html=1;fixedSize=1;" vertex="1" parent="1">
          <mxGeometry x="264" y="360" width="150" height="80" as="geometry" />
        </mxCell>
        <mxCell id="-39-3HdcxTbrcTBz9rxq-6" value="" style="endArrow=classic;html=1;rounded=0;exitX=0.5;exitY=1;exitDx=0;exitDy=0;entryX=0.613;entryY=-0.025;entryDx=0;entryDy=0;entryPerimeter=0;" edge="1" parent="1" source="-39-3HdcxTbrcTBz9rxq-4" target="-39-3HdcxTbrcTBz9rxq-5">
          <mxGeometry width="50" height="50" relative="1" as="geometry">
            <mxPoint x="340" y="350" as="sourcePoint" />
            <mxPoint x="390" y="300" as="targetPoint" />
          </mxGeometry>
        </mxCell>
        <mxCell id="-39-3HdcxTbrcTBz9rxq-7" value="Ввод a" style="shape=parallelogram;perimeter=parallelogramPerimeter;whiteSpace=wrap;html=1;fixedSize=1;" vertex="1" parent="1">
          <mxGeometry x="250" y="505" width="150" height="80" as="geometry" />
        </mxCell>
        <mxCell id="-39-3HdcxTbrcTBz9rxq-8" value="" style="endArrow=classic;html=1;rounded=0;exitX=0.447;exitY=1;exitDx=0;exitDy=0;exitPerimeter=0;entryX=0.547;entryY=-0.012;entryDx=0;entryDy=0;entryPerimeter=0;" edge="1" parent="1" source="-39-3HdcxTbrcTBz9rxq-5" target="-39-3HdcxTbrcTBz9rxq-7">
          <mxGeometry width="50" height="50" relative="1" as="geometry">
            <mxPoint x="320" y="520" as="sourcePoint" />
            <mxPoint x="370" y="470" as="targetPoint" />
          </mxGeometry>
        </mxCell>
        <mxCell id="-39-3HdcxTbrcTBz9rxq-9" value="Ввод y" style="shape=parallelogram;perimeter=parallelogramPerimeter;whiteSpace=wrap;html=1;fixedSize=1;" vertex="1" parent="1">
          <mxGeometry x="250" y="650" width="150" height="80" as="geometry" />
        </mxCell>
        <mxCell id="-39-3HdcxTbrcTBz9rxq-10" value="" style="endArrow=classic;html=1;rounded=0;exitX=0.5;exitY=1;exitDx=0;exitDy=0;entryX=0.5;entryY=0;entryDx=0;entryDy=0;" edge="1" parent="1" source="-39-3HdcxTbrcTBz9rxq-7" target="-39-3HdcxTbrcTBz9rxq-9">
          <mxGeometry width="50" height="50" relative="1" as="geometry">
            <mxPoint x="320" y="660" as="sourcePoint" />
            <mxPoint x="370" y="610" as="targetPoint" />
          </mxGeometry>
        </mxCell>
        <mxCell id="-39-3HdcxTbrcTBz9rxq-11" value="Конец" style="rounded=1;whiteSpace=wrap;html=1;" vertex="1" parent="1">
          <mxGeometry x="240" y="970" width="146" height="80" as="geometry" />
        </mxCell>
        <mxCell id="-39-3HdcxTbrcTBz9rxq-12" value="" style="endArrow=classic;html=1;rounded=0;exitX=0.447;exitY=0.975;exitDx=0;exitDy=0;exitPerimeter=0;" edge="1" parent="1" source="-39-3HdcxTbrcTBz9rxq-9">
          <mxGeometry width="50" height="50" relative="1" as="geometry">
            <mxPoint x="320" y="780" as="sourcePoint" />
            <mxPoint x="317" y="820" as="targetPoint" />
          </mxGeometry>
        </mxCell>
        <mxCell id="-39-3HdcxTbrcTBz9rxq-13" value="T=&lt;strong style=&quot;color: rgb(51, 51, 51); font-family: &amp;quot;YS Text&amp;quot;, -apple-system, BlinkMacSystemFont, Arial, Helvetica, sans-serif; font-size: 16px; text-align: start; background-color: rgb(255, 255, 255);&quot;&gt;√x+b-a+ln y/arctg(b+a)&lt;/strong&gt;" style="shape=parallelogram;perimeter=parallelogramPerimeter;whiteSpace=wrap;html=1;fixedSize=1;" vertex="1" parent="1">
          <mxGeometry x="240" y="810" width="150" height="80" as="geometry" />
        </mxCell>
        <mxCell id="-39-3HdcxTbrcTBz9rxq-17" value="" style="endArrow=classic;html=1;rounded=0;exitX=0.5;exitY=1;exitDx=0;exitDy=0;entryX=0.5;entryY=0;entryDx=0;entryDy=0;" edge="1" parent="1" source="-39-3HdcxTbrcTBz9rxq-13" target="-39-3HdcxTbrcTBz9rxq-11">
          <mxGeometry width="50" height="50" relative="1" as="geometry">
            <mxPoint x="290" y="960" as="sourcePoint" />
            <mxPoint x="340" y="910" as="targetPoint" />
          </mxGeometry>
        </mxCell>
      </root>
    </mxGraphModel>
  </diagram>
</mxfile>
